Coordinates
version=1
nRows=23
nColumns=30
inDegrees=yes

Units are S.I. units (second, meters, Newtons, ...)
Angles are in degrees.

endheader
time	floatyaw	floatroll	floatpitch	floatx	floaty	floatz	pro_sup_l	deviation_l	flexion_l	cmc_flexion_l	cmc_abduction_l	mp_flexion_l	ip_flexion_l	2mcp_flexion_l	2mcp_abduction_l	2pm_flexion_l	2md_flexion_l	3mcp_flexion_l	3mcp_abduction_l	3pm_flexion_l	3md_flexion_l	4mcp_flexion_l	4mcp_abduction_l	4pm_flexion_l	4md_flexion_l	5mcp_flexion_l	5mcp_abduction_l	5pm_flexion_l	5md_flexion_l
-0.995000	-0.679314	-3.115271	87.889519	-0.009677	-0.228743	0.004480	87.227414	-0.210018	-5.126245	26.293718	1.313217	-18.815838	-32.000774	16.402905	5.369608	33.974851	20.923861	4.271343	3.758621	38.077649	21.516661	-7.543758	-3.256161	56.699349	28.759892	-24.707164	-6.891139	66.707651	38.706209
-0.985000	-0.679314	-3.115271	87.889519	-0.009691	-0.228804	0.004538	87.247772	-0.211990	-5.167681	26.359080	1.324451	-18.864312	-32.102787	16.427396	5.359389	33.983533	20.925512	4.319927	3.753727	38.070570	21.500612	-7.503299	-3.223826	56.696198	28.755038	-24.673844	-6.903926	66.600712	38.791611
-0.975000	-0.679314	-3.115271	87.889519	-0.009705	-0.228864	0.004591	87.261319	-0.211989	-5.202982	26.419149	1.333073	-18.909934	-32.218458	16.440570	5.351789	33.999797	20.911950	4.358535	3.746399	38.069519	21.483314	-7.487935	-3.196285	56.708906	28.753342	-24.624965	-6.913961	66.523243	38.879852
-0.965000	-0.679314	-3.115271	87.889519	-0.009717	-0.228911	0.004637	87.275216	-0.208250	-5.229454	26.461756	1.329397	-18.943489	-32.325241	16.438033	5.344945	34.026455	20.883885	4.386238	3.734496	38.070071	21.466123	-7.490388	-3.178655	56.727961	28.755258	-24.547138	-6.919384	66.479997	38.945335
-0.955000	-0.679314	-3.115271	87.889519	-0.009725	-0.228938	0.004671	87.294492	-0.199709	-5.246926	26.476184	1.311774	-18.958702	-32.395869	16.423896	5.338669	34.063285	20.842699	4.409957	3.717355	38.065569	21.447585	-7.494526	-3.171998	56.743296	28.758339	-24.434182	-6.922159	66.462748	38.972478
-0.945000	-0.679314	-3.115271	87.889519	-0.009728	-0.228942	0.004689	87.317622	-0.187480	-5.256126	26.457734	1.287141	-18.954976	-32.410465	16.407794	5.334841	34.104712	20.791127	4.437594	3.696931	38.051525	21.424692	-7.487447	-3.173281	56.749795	28.757701	-24.298232	-6.925868	66.459332	38.960036
-0.935000	-0.679314	-3.115271	87.889519	-0.009729	-0.228924	0.004690	87.336885	-0.175144	-5.257129	26.410786	1.266152	-18.937870	-32.367429	16.399534	5.336290	34.138890	20.735010	4.471282	3.677404	38.027832	21.396077	-7.467447	-3.177436	56.747326	28.748814	-24.167574	-6.931885	66.460538	38.918478
-0.925000	-0.679314	-3.115271	87.889519	-0.009733	-0.228892	0.004682	87.343141	-0.167481	-5.249033	26.347266	1.257042	-18.916392	-32.284928	16.405267	5.344879	34.149238	20.683962	4.505709	3.663383	37.997521	21.364890	-7.443088	-3.180327	56.736391	28.731313	-24.071571	-6.937141	66.459961	38.864220
-0.915000	-0.679314	-3.115271	87.889519	-0.009743	-0.228851	0.004672	87.331529	-0.168379	-5.230892	26.280421	1.262460	-18.898270	-32.190815	16.426513	5.360037	34.119681	20.649456	4.531949	3.657804	37.964055	21.338860	-7.425520	-3.180840	56.714195	28.710873	-24.023692	-6.935660	66.449547	38.813772
-0.905000	-0.679314	-3.115271	87.889519	-0.009759	-0.228806	0.004669	87.304538	-0.179048	-5.202983	26.217960	1.280097	-18.886003	-32.107283	16.460458	5.378609	34.043174	20.640886	4.542882	3.660722	37.930397	21.326910	-7.420721	-3.180897	56.675553	28.696855	-24.015291	-6.923119	66.417966	38.778430
-0.895000	-0.679314	-3.115271	87.889519	-0.009780	-0.228754	0.004676	87.271071	-0.197421	-5.167551	26.159815	1.305180	-18.876317	-32.040741	16.500282	5.396070	33.929212	20.661653	4.536194	3.669641	37.900688	21.334187	-7.426983	-3.183540	56.618551	28.696474	-24.023913	-6.901110	66.355689	38.759942
-0.885000	-0.679314	-3.115271	87.889519	-0.009798	-0.228697	0.004692	87.242681	-0.218965	-5.128846	26.102378	1.332629	-18.863392	-31.983594	16.536430	5.408422	33.804111	20.707215	4.514293	3.681079	37.881815	21.358400	-7.437784	-3.190521	56.550054	28.709191	-24.028698	-6.877599	66.263302	38.749000
-0.875000	-0.679314	-3.115271	87.889519	-0.009807	-0.228635	0.004710	87.229205	-0.238560	-5.092642	26.045710	1.357794	-18.843620	-31.925421	16.559970	5.413710	33.701093	20.765744	4.482953	3.692387	37.881442	21.389554	-7.446381	-3.201004	56.485352	28.725275	-24.021558	-6.862666	66.155587	38.728419
-0.865000	-0.679314	-3.115271	87.889519	-0.009805	-0.228576	0.004726	87.235638	-0.252570	-5.065191	25.997436	1.376092	-18.818647	-31.863897	16.567127	5.412268	33.644406	20.820930	4.450229	3.702798	37.902314	21.413537	-7.448418	-3.212028	56.440457	28.730096	-24.007826	-6.862251	66.056322	38.680953
-0.855000	-0.679314	-3.115271	87.889519	-0.009797	-0.228530	0.004737	87.260937	-0.260147	-5.051651	25.969493	1.383017	-18.794697	-31.806871	16.562058	5.405766	33.636998	20.856156	4.425414	3.713223	37.937083	21.418328	-7.441518	-3.220101	56.421521	28.712218	-23.998136	-6.874327	65.985241	38.599142
-0.845000	-0.679314	-3.115271	87.889519	-0.009790	-0.228505	0.004746	87.298695	-0.263133	-5.054538	25.969829	1.375770	-18.778677	-31.765169	16.555497	5.396025	33.659948	20.859322	4.416989	3.725009	37.968996	21.399983	-7.423524	-3.222847	56.419085	28.670714	-23.998186	-6.890173	65.944525	38.492824
-0.835000	-0.679314	-3.115271	87.889519	-0.009792	-0.228507	0.004753	87.339086	-0.264721	-5.073103	25.995427	1.356296	-18.773836	-31.743311	16.559581	5.384512	33.684210	20.827214	4.429559	3.738450	37.979748	21.365098	-7.391884	-3.219956	56.412158	28.617220	-24.003148	-6.899579	65.913826	38.390019
-0.825000	-0.679314	-3.115271	87.889519	-0.009804	-0.228537	0.004763	87.371278	-0.267747	-5.103975	26.032032	1.333730	-18.777982	-31.735857	16.581728	5.372614	33.687205	20.767672	4.461249	3.751973	37.959932	21.328175	-7.345342	-3.213169	56.380313	28.571485	-24.000020	-6.896161	65.859042	38.329104
-0.815000	-0.679314	-3.115271	87.889519	-0.009825	-0.228590	0.004773	87.386058	-0.273440	-5.142449	26.061031	1.323240	-18.785288	-31.731335	16.620531	5.362035	33.664769	20.697983	4.503150	3.762510	37.915559	21.305121	-7.286902	-3.205454	56.316804	28.552517	-23.976190	-6.879668	65.752533	38.343521
-0.805000	-0.679314	-3.115271	87.889519	-0.009846	-0.228660	0.004782	87.378967	-0.280952	-5.183419	26.069384	1.339433	-18.790124	-31.719934	16.664959	5.354642	33.633147	20.639289	4.541204	3.766792	37.867218	21.305912	-7.225632	-3.199762	56.235539	28.568763	-23.928558	-6.854986	65.594681	38.443981
-0.795000	-0.679314	-3.115271	87.889519	-0.009856	-0.228737	0.004784	87.353128	-0.287664	-5.221588	26.056827	1.386610	-18.790364	-31.699539	16.697208	5.351687	33.620890	20.608809	4.560093	3.762809	37.842291	21.329832	-7.175255	-3.197856	56.167879	28.611732	-23.867340	-6.829646	65.423017	38.606929
-0.785000	-0.679314	-3.115271	87.889519	-0.009850	-0.228808	0.004779	87.319205	-0.290214	-5.251448	26.035953	1.452422	-18.788337	-31.676907	16.699215	5.352969	33.653811	20.613272	4.548372	3.750756	37.862812	21.365983	-7.149595	-3.199586	56.149339	28.658117	-23.812299	-6.811543	65.299562	38.778410
-0.775000	-0.679314	-3.115271	87.889519	-0.009825	-0.228862	0.004764	87.290570	-0.286049	-5.267761	26.024679	1.510905	-18.789079	-31.663775	16.661277	5.356615	33.739092	20.646951	4.503457	3.733116	37.933268	21.399488	-7.157269	-3.202830	56.201254	28.682260	-23.783631	-6.807306	65.279253	38.895553
